<?xml version="1.0" standalone="no"?>
<!DOCTYPE svg PUBLIC "-//W3C//DTD SVG 20010904//EN"
 "http://www.w3.org/TR/2001/REC-SVG-20010904/DTD/svg10.dtd">
<svg version="1.0" xmlns="http://www.w3.org/2000/svg"
 width="316.000000pt" height="316.000000pt" viewBox="0 0 316.000000 316.000000"
 preserveAspectRatio="xMidYMid meet">
<metadata>
Created by potrace 1.11, written by Peter Selinger 2001-2013
</metadata>
<g transform="translate(0.000000,316.000000) scale(0.100000,-0.100000)"
fill="#000000" stroke="none">
<path d="M1496 3028 c-54 -71 -73 -164 -46 -232 15 -40 1 -51 -65 -48 l-55 2
14 -28 c8 -15 25 -38 39 -51 l26 -23 -82 -61 c-451 -333 -742 -725 -903 -1214
-40 -121 -89 -330 -100 -428 -3 -22 -7 -51 -9 -65 -4 -23 -11 -90 -20 -200 -2
-25 -4 -64 -4 -87 l-1 -42 -42 19 c-24 11 -51 20 -60 20 -15 0 -14 -6 8 -47
35 -66 30 -86 -24 -95 -62 -10 -103 -37 -134 -88 -45 -75 -43 -84 24 -88 73
-5 119 11 165 54 35 33 37 34 60 18 14 -8 32 -34 42 -56 l17 -40 18 39 c16 36
23 62 25 90 1 6 39 -8 89 -33 255 -126 523 -206 812 -241 83 -10 395 -10 480
0 298 35 621 129 888 260 114 56 109 56 111 -5 0 -28 5 -56 11 -62 7 -7 10 -6
10 2 0 14 59 82 71 82 5 0 24 -16 42 -37 17 -20 50 -44 72 -54 40 -18 119 -24
163 -12 21 5 23 10 17 42 -16 88 -80 151 -175 173 -43 10 -50 15 -50 36 0 14
10 41 22 60 l22 35 -33 -6 c-18 -4 -46 -16 -62 -28 l-29 -20 -1 33 c0 18 -2
42 -3 53 -2 11 -6 49 -10 85 -14 115 -64 351 -100 472 -168 553 -465 960 -981
1341 -66 49 -121 91 -122 95 -2 4 10 16 26 27 26 17 51 53 51 73 0 4 -24 6
-52 6 -69 -2 -81 7 -62 51 21 52 17 114 -11 172 -14 28 -34 58 -44 67 -18 16
-20 16 -45 -16z m42 -90 c13 -13 16 -66 6 -92 -8 -22 -31 -20 -44 3 -13 24
-13 43 0 75 11 29 20 32 38 14z m45 -360 c34 -23 98 -69 142 -102 626 -471
942 -997 1029 -1712 3 -23 8 -89 11 -146 5 -81 4 -106 -7 -115 -28 -23 -265
-136 -371 -177 -187 -73 -440 -134 -617 -151 -67 -6 -377 -7 -406 -1 -11 2
-46 7 -78 10 -234 25 -518 111 -788 239 l-127 60 4 151 c3 137 9 230 20 295 2
13 7 45 11 70 28 203 114 464 219 670 150 294 341 523 659 790 31 25 227 161
233 161 2 0 32 -19 66 -42z m1433 -2174 c60 -29 54 -83 -8 -62 -37 13 -61 47
-46 65 13 16 13 16 54 -3z m-2833 -29 c7 -17 -47 -65 -74 -65 -33 0 -35 30 -5
57 30 26 71 30 79 8z"/>
<path d="M1540 2489 c0 -19 -77 -179 -86 -179 -3 0 -17 9 -31 20 -78 61 -172
-33 -113 -112 27 -37 22 -44 -73 -91 l-68 -34 63 -23 c35 -12 73 -30 86 -38
20 -13 21 -16 8 -31 -41 -46 -35 -111 13 -135 35 -18 70 -11 102 20 15 15 31
24 36 21 4 -3 24 -35 43 -71 34 -63 50 -81 50 -53 0 7 12 37 26 66 l26 52 27
-25 c77 -74 185 25 119 109 -21 27 -21 28 -2 42 10 8 47 28 82 45 34 16 62 32
62 36 0 4 -26 19 -58 34 -31 15 -66 35 -76 43 -18 14 -18 16 -3 33 27 29 28
80 3 109 -27 31 -85 36 -115 9 -19 -17 -20 -16 -44 26 -14 24 -36 66 -51 93
-14 28 -25 43 -26 34z m48 -155 l31 -41 -40 -39 -39 -38 -30 30 -31 30 33 56
c18 31 36 53 39 50 3 -4 20 -25 37 -48z m161 -88 l-12 -27 -34 33 c-39 38 -40
46 -10 57 17 7 27 4 45 -13 21 -20 22 -26 11 -50z m-340 46 l22 -17 -36 -35
c-35 -34 -37 -34 -51 -16 -18 26 -18 45 3 68 20 23 35 23 62 0z m268 -63 l32
-32 -33 -33 c-19 -19 -38 -34 -43 -34 -5 0 -22 14 -38 30 l-29 30 34 35 c19
19 36 35 39 35 3 0 20 -14 38 -31z m-192 -69 c-16 -16 -31 -30 -34 -30 -3 0
-19 11 -35 25 l-30 25 34 35 34 35 30 -30 30 -30 -29 -30z m304 -24 l51 -35
-56 -30 c-60 -32 -72 -31 -108 8 -19 21 -19 21 15 56 19 19 37 35 40 35 4 0
30 -15 58 -34z m-214 -6 c30 -31 29 -34 -12 -78 -17 -18 -47 -7 -68 24 -16 25
-16 27 11 55 15 16 31 29 34 29 3 0 19 -13 35 -30z m-175 -5 l24 -26 -26 -26
-27 -26 -50 25 -51 25 38 25 c48 33 63 34 92 3z m86 -86 c32 -31 32 -31 13
-50 -20 -20 -20 -19 -59 8 l-39 28 21 23 c12 12 24 22 27 22 3 0 19 -14 37
-31z m177 4 l26 -28 -33 -31 c-34 -33 -43 -32 -75 9 -12 16 -11 21 14 47 16
17 32 30 35 30 3 0 18 -12 33 -27z m-227 -95 c4 -6 -5 -22 -20 -35 -21 -18
-31 -21 -46 -13 -28 15 -34 47 -15 76 l16 25 29 -21 c16 -12 33 -26 36 -32z
m300 17 c15 -23 15 -27 0 -50 -20 -30 -46 -32 -70 -6 -16 18 -15 20 14 50 17
17 33 31 36 31 2 0 11 -11 20 -25z m-165 -12 c25 -27 25 -29 9 -61 l-16 -33
-31 45 c-29 40 -30 45 -15 60 21 21 24 21 53 -11z"/>
<path d="M1973 2055 c-31 -14 -53 -30 -53 -39 0 -21 9 -20 75 7 37 15 55 28
55 40 0 22 -14 21 -77 -8z"/>
<path d="M1048 2044 c-4 -3 2 -21 13 -39 25 -41 9 -56 -22 -21 -31 35 -44 21
-19 -19 27 -43 7 -60 -25 -23 -15 17 -27 23 -35 18 -10 -6 -5 -17 22 -44 20
-20 42 -36 49 -36 13 0 89 76 89 89 0 13 -44 74 -56 78 -5 2 -13 1 -16 -3z"/>
<path d="M1993 1990 c-38 -23 -42 -37 -12 -48 18 -7 17 -9 -15 -25 -35 -16
-48 -37 -23 -37 22 0 137 59 137 71 0 7 -9 9 -23 6 -12 -4 -29 -2 -37 4 -13 8
-11 12 9 29 30 26 6 26 -36 0z"/>
<path d="M1969 1841 c-21 -17 -24 -27 -24 -98 0 -77 0 -78 -26 -81 -39 -5 -64
-37 -60 -79 1 -7 15 -9 42 -6 47 7 58 -3 51 -47 -4 -27 -8 -29 -58 -36 -36 -4
-65 -2 -85 6 -21 9 -57 11 -120 7 l-89 -7 0 85 c0 49 -4 85 -10 85 -20 0 -70
-104 -70 -147 0 -39 -2 -43 -24 -43 -24 0 -73 34 -108 75 -23 26 -100 176
-123 238 -17 45 -20 48 -49 45 -38 -4 -37 -18 5 -124 33 -82 36 -112 13 -155
-14 -28 -79 -68 -111 -69 -10 0 -16 136 -15 333 0 15 -2 27 -4 27 -8 0 -60
-25 -65 -32 -3 -4 -4 -86 -3 -182 l3 -174 -37 -6 c-129 -21 -195 15 -218 119
l-6 30 -10 -25 c-18 -46 -14 -128 9 -158 34 -46 76 -64 147 -63 36 0 76 3 90
7 l26 6 1 -108 c2 -156 9 -140 -81 -175 -68 -26 -144 -28 -187 -6 -39 21 -80
77 -94 132 -24 89 -49 82 -38 -11 10 -81 47 -164 85 -191 62 -44 127 -47 234
-11 36 13 69 23 75 23 5 0 10 -55 10 -134 1 -122 -1 -138 -22 -181 -28 -55
-65 -78 -126 -76 l-42 1 -1 55 c-1 89 -16 114 -76 125 -25 5 -94 -31 -103 -54
-21 -52 -11 -98 32 -142 28 -31 22 -54 -22 -83 -57 -38 -143 -26 -228 30 l-38
25 17 -28 c51 -81 121 -126 195 -126 53 1 107 31 155 84 27 31 34 34 90 35 85
2 125 18 185 74 54 51 62 52 109 19 67 -46 207 -87 313 -91 41 -1 47 -4 47
-23 0 -43 32 -115 71 -159 51 -57 108 -80 203 -79 71 1 164 29 620 188 54 19
111 35 127 35 43 0 79 17 79 39 0 23 -20 41 -53 47 -14 2 -80 20 -147 40 -156
45 -189 49 -233 30 -31 -13 -77 -65 -77 -88 0 -4 15 -4 33 -1 81 18 227 0 227
-27 0 -4 -109 -47 -242 -96 -225 -82 -249 -89 -318 -89 -61 0 -82 4 -112 23
-37 23 -71 80 -81 138 -5 27 -3 32 28 43 40 14 95 75 124 137 46 98 2 246 -55
183 -13 -15 -15 -29 -10 -72 6 -45 3 -62 -15 -100 -18 -37 -63 -77 -74 -65 -2
2 -5 71 -7 155 l-4 151 56 15 c30 8 69 19 87 25 28 9 37 6 85 -24 29 -19 70
-37 91 -41 34 -5 37 -8 38 -42 5 -129 0 -171 -25 -227 -15 -31 -25 -59 -22
-61 9 -9 76 83 92 126 10 25 20 80 23 121 l6 75 40 6 c22 4 80 21 129 38 49
17 95 31 103 31 7 0 25 -14 40 -30 50 -56 133 -30 133 43 0 38 -48 103 -87
118 -21 8 -31 4 -61 -22 -36 -32 -112 -70 -167 -84 -49 -12 -135 -22 -136 -16
-6 41 -8 421 -2 422 40 7 79 9 216 13 87 2 160 6 162 8 2 2 5 12 7 23 2 16 -6
22 -42 33 -45 13 -124 44 -275 107 l-79 34 -2 89 c-2 117 -10 130 -55 93z
m125 -297 c21 -15 16 -18 -36 -27 -25 -4 -28 -1 -28 23 0 24 3 27 23 23 12 -4
31 -12 41 -19z m-746 -73 c33 -41 77 -66 132 -76 19 -3 36 -7 37 -9 2 -2 5
-76 6 -165 l3 -162 -30 7 c-30 6 -56 18 -184 84 -50 27 -74 33 -127 34 l-65 1
-1 55 c-1 87 -1 124 0 137 0 6 29 26 64 43 39 19 70 42 81 60 23 40 46 38 84
-9z m369 -76 c-20 -65 13 -105 86 -105 53 1 97 49 97 107 0 24 4 29 28 31 l28
2 3 -87 c8 -306 8 -318 -15 -321 -11 -2 -31 6 -44 16 l-23 19 21 21 c12 12 22
26 22 31 0 16 -63 59 -92 65 -42 7 -149 -19 -165 -40 -12 -17 -11 -21 13 -40
26 -22 26 -22 6 -33 -11 -6 -32 -11 -46 -11 -26 0 -26 0 -27 93 0 50 -2 129
-3 175 -1 56 2 86 10 93 18 15 65 26 90 21 19 -3 21 -7 11 -37z m132 -11 c10
-10 -20 -27 -49 -27 -43 0 -61 20 -29 31 22 9 68 6 78 -4z m-13 -265 c10 -16
-10 -30 -45 -31 -37 -1 -46 5 -38 27 7 18 72 21 83 4z m-544 -44 c65 -52 139
-94 178 -101 19 -3 40 -7 47 -9 8 -3 12 -51 12 -169 l1 -166 -24 0 c-83 0
-272 75 -344 137 l-34 28 -3 140 c-3 133 -2 141 19 157 37 30 98 23 148 -17z
m1113 -1 c8 -4 22 -19 31 -35 13 -27 13 -30 -2 -36 -12 -4 -26 4 -46 26 -36
40 -28 62 17 45z m-1621 -330 c25 -25 20 -63 -10 -76 -23 -11 -29 -10 -45 10
-19 24 -16 49 9 70 20 16 27 15 46 -4z"/>
<path d="M1215 1340 c-24 -27 -13 -68 22 -76 20 -5 31 -2 44 14 39 49 -24 108
-66 62z"/>
<path d="M1356 1334 c-22 -21 -20 -47 4 -69 26 -24 65 -8 72 29 9 46 -43 73
-76 40z"/>
<path d="M1790 1253 c-60 -16 -90 -37 -75 -52 7 -7 25 -6 50 0 22 6 52 13 67
16 31 6 53 27 43 43 -8 12 -16 12 -85 -7z"/>
<path d="M1345 889 c-38 -10 -73 -18 -77 -18 -12 -1 -9 -41 2 -41 6 0 40 7 75
16 67 17 89 32 77 51 -5 8 -27 5 -77 -8z"/>
<path d="M890 1810 c-12 -8 -12 -14 3 -45 22 -47 21 -74 -4 -101 -15 -16 -18
-27 -12 -39 9 -15 13 -13 37 16 16 18 32 44 37 57 6 16 14 22 25 18 29 -11 26
24 -6 64 -32 40 -52 48 -80 30z m53 -34 c3 -8 0 -17 -8 -19 -15 -7 -25 1 -25
20 0 17 26 17 33 -1z"/>
<path d="M2172 1798 c-20 -20 -14 -66 9 -79 33 -17 69 3 69 39 0 33 -16 52
-45 52 -12 0 -26 -5 -33 -12z m56 -36 c4 -28 -24 -40 -45 -19 -14 13 -14 19
-3 32 18 22 44 15 48 -13z"/>
<path d="M1456 1714 c-54 -14 -75 -29 -60 -43 14 -15 118 12 122 31 5 24 -8
26 -62 12z"/>
<path d="M2228 1323 c-24 -27 -46 -75 -52 -113 -18 -108 -17 -110 7 -110 19 0
23 6 24 40 2 48 22 93 44 96 67 9 89 39 58 78 -24 30 -59 34 -81 9z m57 -33
c1 -14 -13 -30 -26 -30 -10 0 -20 31 -13 41 9 15 39 6 39 -11z"/>
<path d="M854 1296 c-3 -8 0 -24 6 -35 12 -23 8 -34 -21 -66 -11 -12 -15 -25
-10 -33 6 -9 17 -2 43 26 19 21 39 37 45 35 23 -8 21 15 -3 50 -26 38 -51 48
-60 23z m46 -26 c0 -5 -7 -10 -15 -10 -8 0 -15 5 -15 10 0 6 7 10 15 10 8 0
15 -4 15 -10z"/>
<path d="M576 988 c-14 -8 -16 -18 -11 -48 5 -31 3 -42 -16 -59 -13 -12 -29
-21 -36 -21 -15 0 -18 -26 -4 -34 9 -6 83 40 89 54 1 4 14 5 27 2 18 -3 25 0
25 11 0 9 -5 19 -10 22 -6 4 -10 12 -9 18 5 44 -24 73 -55 55z m34 -44 c0 -8
-7 -14 -15 -14 -15 0 -21 21 -9 33 10 9 24 -2 24 -19z"/>
<path d="M2217 921 c-82 -24 -106 -72 -26 -51 19 5 53 14 77 20 31 8 42 16 42
30 0 24 -15 24 -93 1z"/>
<path d="M2285 783 c-71 -15 -91 -28 -75 -49 7 -8 31 -6 90 7 102 22 110 25
110 44 0 19 -30 18 -125 -2z"/>
<path d="M907 493 c-13 -13 -7 -32 13 -38 23 -7 49 -52 45 -77 -2 -9 3 -22 10
-28 17 -14 36 10 31 41 -5 34 11 59 45 71 38 13 38 38 1 38 -15 0 -33 -5 -38
-10 -17 -17 -51 -19 -71 -5 -21 16 -27 18 -36 8z"/>
<path d="M1322 478 c-30 -30 11 -85 44 -57 20 16 17 46 -5 59 -24 13 -24 13
-39 -2z"/>
<path d="M2361 422 c-12 -22 3 -42 30 -42 17 0 33 36 23 52 -9 15 -43 8 -53
-10z"/>
</g>
</svg>
