<svg xmlns="http://www.w3.org/2000/svg" width="337.474" height="317.049" viewBox="0 0 3.515 3.303" shape-rendering="geometricPrecision" text-rendering="geometricPrecision" image-rendering="optimizeQuality" fill-rule="evenodd" clip-rule="evenodd"><defs><style>.fil0{fill:#063}</style></defs><g id="Layer_x0020_1"><g id="_224311816"><path id="_224311936" class="fil0" d="M0 3.094c.111.023.217.014.281-.088.052-.002.106.075.095.138.027-.048.065-.127.054-.175.908.483 1.789.414 2.652-.03a.286.286 0 00.014.151c.025-.055.043-.098.097-.113.079.117.186.154.322.113-.009-.146-.095-.227-.26-.246a.168.168 0 01.05-.125c-.046-.012-.092.015-.13.054C3.071 1.524 2.465.91 1.802.454c.077-.033.093-.071.105-.117a.267.267 0 01-.15-.008C1.817.212 1.8.106 1.696 0c-.099.096-.127.225-.066.331a.18.18 0 01-.147.006c.009.056.05.1.09.12C.853.952.35 1.65.322 2.793a.266.266 0 00-.137-.048c.04.058.072.12.05.156C.107 2.9.038 2.969 0 3.094zm.415-.229C.383 1.842.83 1.04 1.69.485c.743.493 1.371 1.168 1.393 2.353-.84.483-1.737.522-2.667.027zm-.21.114C.194 2.96.16 2.96.13 2.98c-.033.017-.05.048-.041.065.01.017.043.017.073 0 .032-.02.05-.048.041-.067zm3.085-.027c.009-.017.04-.017.073.002.03.017.048.046.04.065-.01.018-.042.018-.074-.002-.03-.017-.048-.048-.04-.065zM1.692.122c.02 0 .034.03.034.069 0 .038-.014.069-.034.069-.018 0-.034-.031-.034-.07 0-.038.016-.069.034-.069z"/><path id="_224311048" class="fil0" d="M2.13 2.726c.056-.031.1-.086.14-.229l-.02-1.134c-.01-.048-.052-.03-.086.024l.034 1.149a.518.518 0 01-.067.19z"/><path id="_224310808" class="fil0" d="M1.69 1.667c.03-.036.07-.168.086-.113l.03 1.166c-.007.203.082.306.313.26l.54-.195c-.059-.051-.16-.06-.307-.025.086-.229.257-.072.546-.024.06.057.03.088-.091.09l-.717.244c-.177.021-.328-.013-.385-.233l-.014-1.17z"/><rect id="_224310952" class="fil0" transform="matrix(1.36685 -.35026 .12697 1.7758 1.905 2.033)" width=".134" height=".027" rx=".013" ry=".013"/><rect id="_224311264" class="fil0" transform="matrix(1.37959 -.35353 .12815 1.79235 2.384 2.4)" width=".134" height=".027" rx=".013" ry=".013"/><ellipse id="_224311984" class="fil0" cx="2.656" cy="2.947" rx=".035" ry=".037"/><ellipse id="_224309080" class="fil0" cx="1.544" cy="1.956" rx=".052" ry=".054"/><ellipse id="_224309920" class="fil0" cx="1.389" cy="1.948" rx=".052" ry=".054"/><path id="_224310088" class="fil0" d="M.47 2.745c.04.108.237.311.434.04.155.013.231-.014.334-.142.205.138.41.168.615.118.155-.128.183-.253.116-.371-.033-.02-.099.026-.055.114.015.03-.023.092-.055.142-.165.122-.423.024-.604-.124l-.025-1.18-.079.034.014 1.174c-.027.11-.08.172-.225.144.09-.361-.388-.159-.123.051-.063.126-.219.112-.346 0zm.373-.184c.027 0 .049.024.049.054s-.022.053-.049.053c-.026 0-.048-.024-.048-.053 0-.03.022-.054.048-.054z"/><path id="_224310736" class="fil0" d="M2.452 1.387c.03 0 .053.024.053.055 0 .032-.023.057-.053.057S2.4 1.474 2.4 1.442c0-.03.024-.055.053-.055zm-.001.023c.017 0 .032.015.032.034 0 .02-.015.035-.032.035-.018 0-.033-.015-.033-.035 0-.019.015-.034.033-.034z"/><rect id="_224312008" class="fil0" transform="matrix(1.05627 -.24624 -.05357 1.66105 1.549 1.514)" width=".134" height=".027" rx=".013" ry=".013"/><rect id="_224311096" class="fil0" transform="matrix(1.13442 -.48585 .33799 1.51531 2.129 1.146)" width=".134" height=".027" rx=".013" ry=".013"/><path id="_224309032" class="fil0" d="M2.265 1.167c.01-.001.02-.004.031-.004-.036.008-.063.032-.059.05.003.01.014.018.032.02l.025-.013c.01-.005.02 0 .023.006.003.01-.003.02-.01.024l-.135.062c-.009.005-.02.002-.022-.006-.005-.009.001-.019.011-.024l.075-.035c-.028.002-.05-.006-.053-.02-.004-.02.032-.048.082-.06z"/><path id="_224311432" class="fil0" d="M1.47 1.181l.377-.374a.087.087 0 01.126.003.096.096 0 01-.003.132l-.377.374a.087.087 0 01-.126-.003.096.096 0 01.003-.132zm.038.02l.356-.354c.021-.021.048-.026.061-.012l.024.026c.013.015.008.042-.014.063l-.355.354c-.019.018-.047.024-.06.01l-.024-.026c-.013-.014-.006-.043.012-.062z"/><path id="_224309728" class="fil0" d="M1.964 1.188L1.587.813a.087.087 0 00-.127.003.096.096 0 00.003.132l.377.375a.087.087 0 00.127-.003.096.096 0 00-.003-.132zm-.039.019L1.57.853C1.548.832 1.522.828 1.508.842l-.023.026c-.013.014-.008.042.013.063l.356.353c.019.019.047.025.06.01l.024-.026c.013-.014.006-.043-.013-.061z"/><path id="_224312032" class="fil0" d="M1.29 1.072c.225-.068.36-.23.431-.453.085.227.23.374.423.439-.196.077-.36.191-.407.392-.067-.156-.155-.294-.447-.378zm.117 0c.1-.04.263-.204.314-.331.066.122.232.28.33.324-.113.045-.285.161-.313.278-.025-.07-.144-.201-.331-.27z"/><path id="_224308552" class="fil0" d="M2.465 1.946a.417.417 0 00-.057.24l.047-.01c-.006-.057 0-.106.037-.148.198-.003.033-.197-.027-.082zm.057-.001c.014.001.024.013.023.03-.002.015-.014.027-.028.025-.014-.001-.025-.015-.023-.031.001-.016.013-.026.028-.024z"/><path id="_224309560" class="fil0" d="M1.083 1.438l.021.012a.02.02 0 01.008.03v.003c-.007.012-.02.015-.03.01l-.012-.008a.345.345 0 01-.081.13l-.025-.036c.034-.026.055-.057.053-.103-.113-.115.065-.128.062-.04l.004.002zm-.039-.025c-.01-.009-.022-.007-.03.003s-.006.023.004.032c.008.006.022.004.03-.004.006-.01.006-.024-.004-.031z"/><path id="_224309536" class="fil0" d="M1.022 2.004l.015.012a.016.016 0 01.001.024l-.001.002c-.007.008-.017.009-.023.003l-.008-.008a.262.262 0 01-.08.086L.91 2.092c.03-.015.05-.035.056-.07-.069-.104.068-.086.053-.02l.002.002zm-.025-.025C.99 1.97.98 1.97.973 1.976c-.007.007-.007.017-.001.025.005.006.016.006.022.001.007-.006.009-.016.003-.023z"/><path id="_224311072" class="fil0" d="M.705 2.375l.015.018c.007.008.006.022-.003.028l-.003.003c-.01.007-.021.006-.027-.002l-.009-.011a.314.314 0 01-.114.083l-.01-.04c.039-.01.068-.03.082-.07-.06-.14.1-.087.067-.012l.002.003zM.68 2.339c-.005-.01-.017-.014-.027-.008-.01.006-.012.018-.007.03.004.007.018.01.027.006.009-.006.013-.018.007-.028z"/><path id="_224310040" class="fil0" d="M1.076 3.004c0-.059-.011-.093-.06-.108-.033-.019.005-.066.022-.041.065.057.086-.01.128-.01.04-.009.044.032.01.046-.072.003-.057.058-.055.104 0 .026-.041.036-.045.01z"/><path id="_224309368" class="fil0" d="M1.085 1.215c.018.03.034.058.055.057l.015-.018c-.006-.026-.03-.046-.034-.056-.015-.024.004-.035.02-.019.007.007.018.028.038.041.009.005.02.001.02-.015-.002-.03-.044-.056-.04-.07.025-.04.099.06.08.092a.204.204 0 01-.094.083c-.034-.003-.073-.05-.084-.075.011-.018.002-.014.024-.02z"/><path id="_224311240" class="fil0" d="M.707 1.988c.004.314.173.458.58.187.07-.023.136 0 .195.068.102.079.193.114.42.059.061-.04.112-.036.154.014.147.087.278.051.485-.03.019-.004.066-.03.094.051.198.068.163-.191 0-.213-.101.166-.558.196-.54.093.066-.036.047-.077-.058-.123-.168.002-.266.062-.14.111-.02.055-.266.042-.4-.065a.344.344 0 00-.227-.056c-.272.184-.465.202-.528-.075-.002-.012-.009-.027-.035-.021zm1.272.158c.03-.004.06.002.068.014.01.013-.007.027-.035.033-.028.006-.06 0-.068-.014-.009-.012.007-.027.035-.033zm.702.065c.024.018.042.047.038.067-.002.018-.024.018-.049 0-.024-.018-.042-.047-.038-.065.003-.018.024-.02.049-.002z"/><path id="_224310328" class="fil0" d="M.872 1.606c-.057.11-.053.237.092.285a.66.66 0 00.429-.11c.035-.079.07-.08.106-.008.074.077.158.098.29.07.032-.032.078-.042.138-.03-.118.193.218.223.185.005.184-.03.37-.04.554-.035.042-.01.05-.052 0-.065-.241-.053-.337-.171-.505-.166-.067-.002-.099.032-.095.103.093-.024.277.004.28.053l-.204.028c-.041.007-.071.028-.156-.011-.188-.025-.308.09-.395-.004-.073-.055-.14-.188-.204-.36-.038-.015-.104-.024-.04.107.069.135.067.238-.089.277-.262.092-.396.045-.386-.139zm1.116.246c.03-.006.06 0 .069.013.009.011-.007.026-.036.03-.028.006-.06 0-.069-.013-.009-.011.007-.026.036-.03z"/><rect id="_224309152" class="fil0" transform="matrix(1.71696 -.35353 .15949 1.79235 2.45 2.553)" width=".134" height=".027" rx=".013" ry=".013"/><rect id="_224309056" class="fil0" transform="matrix(1.37959 -.35353 .12815 1.79235 1.397 2.438)" width=".134" height=".027" rx=".013" ry=".013"/><ellipse id="_224310256" class="fil0" cx="1.498" cy="2.903" rx=".04" ry=".041"/><g><path id="_224310136" class="fil0" d="M1.695.381l.029.008.029.009-.03.008-.028.008-.03-.008-.028-.008.029-.009z"/><path id="_224309104" class="fil0" d="M.315 2.923l-.006-.03-.007-.03.021.023.02.022.007.03.006.03-.02-.023z"/><path id="_224309296" class="fil0" d="M3.18 2.893l.006-.03.006-.03-.02.023-.02.022-.007.03-.006.03.02-.023z"/></g></g></g></svg>