<style type="text/css">.abu-brand{
width:300px;
}
</style>
<svg class="abu-brand" data-name="Layer 1" id="Layer_1" viewbox="0 0 82.61 11.39" xmlns="http://www.w3.org/2000/svg"><defs>
<style type="text/css">.cls-1,.cls-2{fill:#006837;}.cls-1{fill-rule:evenodd;}.cls-3{font-size:5px;font-family:SourceSerifPro-Semibold, Source Serif Pro;font-weight:600;}.cls-4{letter-spacing:-0.01em;}.cls-5{letter-spacing:-0.02em;}.cls-6{letter-spacing:-0.02em;}.cls-7{letter-spacing:0em;}.cls-8{letter-spacing:-0.01em;}.cls-9{letter-spacing:-0.02em;}.cls-10{letter-spacing:0em;}.cls-11{letter-spacing:-0.01em;}.cls-12{letter-spacing:-0.01em;}.cls-13{letter-spacing:-0.01em;}.cls-14{letter-spacing:-0.02em;}.cls-15{font-size:3px;fill:gray;font-family:Arial-BoldMT, Arial;font-weight:700;letter-spacing:0.11em;}.cls-16{letter-spacing:0.07em;}
</style>
</defs>
<title></title>
<g data-name="Layer_1" id="Layer_1-2"><g data-name=" 224311816" id="_224311816"><path class="cls-1" d="M10,18.67a.83.83,0,0,0,1-.31c.18,0,.36.26.32.48a1.09,1.09,0,0,0,.19-.6,9.15,9.15,0,0,0,9-.11,1.07,1.07,0,0,0,.05.53c.09-.2.15-.34.33-.4a.91.91,0,0,0,1.1.4c0-.51-.32-.79-.89-.85a.65.65,0,0,1,.17-.44.5.5,0,0,0-.44.19,9.89,9.89,0,0,0-4.69-8,.54.54,0,0,0,.36-.41.81.81,0,0,1-.51,0A.91.91,0,0,0,15.79,8a.94.94,0,0,0-.23,1.14.63.63,0,0,1-.5,0,.56.56,0,0,0,.31.41,9.43,9.43,0,0,0-4.27,8.06.91.91,0,0,0-.46-.16c.13.2.24.41.17.54a.78.78,0,0,0-.81.66Zm1.42-.79a9,9,0,0,1,4.34-8.21c2.54,1.7,4.69,4,4.76,8.12a8.84,8.84,0,0,1-9.1.09Zm-.72.39c0-.06-.15-.06-.25,0s-.17.16-.14.22.14.06.25,0S10.73,18.34,10.7,18.27Zm10.53-.09c0-.06.14-.06.25,0s.17.16.13.23-.14.06-.25,0S21.2,18.24,21.23,18.18ZM15.78,8.42c.06,0,.11.1.11.24s-.05.24-.11.24-.12-.11-.12-.24S15.72,8.42,15.78,8.42Z" data-name=" 224311936" id="_224311936" transform="translate(-10 -8)"></path><path class="cls-1" d="M17.27,17.4a1.13,1.13,0,0,0,.48-.79l-.07-3.91c0-.17-.18-.1-.29.08l.11,4a1.59,1.59,0,0,1-.23.66Z" data-name=" 224311048" id="_224311048" transform="translate(-10 -8)"></path><path class="cls-1" d="M15.79,13.76c.1-.12.24-.57.29-.38l.1,4c0,.69.28,1,1.06.89l1.83-.67c-.2-.18-.54-.21-1-.08.29-.79.87-.25,1.85-.09.2.2.1.3-.31.31l-2.43.83c-.6.08-1.11,0-1.3-.79l-.05-4Z" data-name=" 224310808" id="_224310808" transform="translate(-10 -8)"></path><path class="cls-1" d="M16.56,15l.51-.13s.06,0,.06.07h0a.09.09,0,0,1-.05.1l-.51.13s-.06,0-.06-.07h0A.09.09,0,0,1,16.56,15Z" data-name=" 224310952" id="_224310952" transform="translate(-10 -8)"></path><path class="cls-1" d="M18.2,16.26l.51-.13s.06,0,.07.06h0a.11.11,0,0,1-.06.1l-.51.13s-.06,0-.06-.07h0A.11.11,0,0,1,18.2,16.26Z" data-name=" 224311264" id="_224311264" transform="translate(-10 -8)"></path><ellipse class="cls-2" cx="9.06" cy="10.16" data-name=" 224311984" id="_224311984" rx="0.12" ry="0.13"></ellipse><ellipse class="cls-2" cx="5.27" cy="6.74" data-name=" 224309080" id="_224309080" rx="0.18" ry="0.19"></ellipse><ellipse class="cls-2" cx="4.74" cy="6.72" data-name=" 224309920" id="_224309920" rx="0.18" ry="0.19"></ellipse><path class="cls-1" d="M11.62,17.46a.79.79,0,0,0,1.48.14,1.1,1.1,0,0,0,1.14-.49,2.49,2.49,0,0,0,2.09.41c.54-.44.63-.87.4-1.28-.11-.07-.34.09-.19.39.05.11-.07.32-.18.49-.57.42-1.45.09-2.07-.42l-.08-4.07-.27.11,0,4c-.09.38-.27.6-.76.5.31-1.25-1.33-.55-.42.17-.22.44-.75.39-1.18,0Zm1.26-.63A.17.17,0,0,1,13,17a.17.17,0,0,1-.16.18.18.18,0,0,1-.17-.18A.18.18,0,0,1,12.88,16.83Z" data-name=" 224310088" id="_224310088" transform="translate(-10 -8)"></path><path class="cls-1" d="M18.37,12.78a.19.19,0,0,1,.18.19.18.18,0,1,1-.36,0A.19.19,0,0,1,18.37,12.78Zm0,.08a.12.12,0,0,1,0,.24.12.12,0,0,1,0-.24Z" data-name=" 224310736" id="_224310736" transform="translate(-10 -8)"></path><path class="cls-1" d="M15.33,13.21l.39-.09s0,0,0,.06h0a.1.1,0,0,1,0,.08l-.39.09s-.05,0-.05-.06h0S15.31,13.21,15.33,13.21Z" data-name=" 224312008" id="_224312008" transform="translate(-10 -8)"></path><path class="cls-1" d="M17.32,11.93l.42-.18s.05,0,.06.05h0a.08.08,0,0,1,0,.09l-.42.18a.06.06,0,0,1-.07,0h0A.08.08,0,0,1,17.32,11.93Z" data-name=" 224311096" id="_224311096" transform="translate(-10 -8)"></path><path class="cls-1" d="M17.73,12h.11c-.12,0-.22.11-.2.17s.05.06.11.07l.08,0a.05.05,0,0,1,.08,0h0a.07.07,0,0,1,0,.08l-.46.21a0,0,0,0,1-.07,0h0s0-.06,0-.08l.25-.12c-.09,0-.17,0-.18-.07s.11-.17.28-.21Z" data-name=" 224309032" id="_224309032" transform="translate(-10 -8)"></path><path class="cls-1" d="M15,12.07l1.28-1.29a.31.31,0,0,1,.44,0h0a.36.36,0,0,1,0,.46l-1.29,1.29a.29.29,0,0,1-.43,0h0A.34.34,0,0,1,15,12.07Zm.13.07,1.21-1.22c.08-.07.17-.09.21,0l.08.09c.05,0,0,.14,0,.22l-1.22,1.22c-.06.06-.16.08-.2,0l-.08-.09S15.09,12.2,15.15,12.14Z" data-name=" 224311432" id="_224311432" transform="translate(-10 -8)"></path><path class="cls-1" d="M16.7,12.1l-1.28-1.3a.3.3,0,0,0-.43,0h0a.34.34,0,0,0,0,.46l1.28,1.29a.29.29,0,0,0,.43,0h0A.33.33,0,0,0,16.7,12.1Zm-.13.06-1.21-1.22c-.07-.07-.17-.09-.21,0l-.08.09c-.05,0,0,.15,0,.22l1.22,1.22c.06.06.16.08.2,0l.08-.09A.15.15,0,0,0,16.57,12.16Z" data-name=" 224309728" id="_224309728" transform="translate(-10 -8)"></path><path class="cls-1" d="M14.4,11.7a2.21,2.21,0,0,0,1.48-1.57,2.33,2.33,0,0,0,1.44,1.52A2,2,0,0,0,15.93,13a2,2,0,0,0-1.53-1.3Zm.4,0a2.63,2.63,0,0,0,1.08-1.15A3.15,3.15,0,0,0,17,11.67c-.38.16-1,.56-1.07,1a2,2,0,0,0-1.13-.93Z" data-name=" 224312032" id="_224312032" transform="translate(-10 -8)"></path><path class="cls-1" d="M18.42,14.71a1.4,1.4,0,0,0-.2.83l.16,0a.62.62,0,0,1,.13-.51c.67,0,.11-.68-.09-.28Zm.19,0c.05,0,.08,0,.08.1a.11.11,0,0,1-.1.09.11.11,0,0,1-.08-.11C18.52,14.73,18.56,14.7,18.61,14.71Z" data-name=" 224308552" id="_224308552" transform="translate(-10 -8)"></path><path class="cls-1" d="M13.7,13l.07,0a.07.07,0,0,1,0,.1h0s-.06.06-.09,0l0,0a1.2,1.2,0,0,1-.27.45l-.09-.12a.39.39,0,0,0,.18-.36c-.38-.4.22-.44.21-.14Zm-.14-.09a.07.07,0,0,0-.1,0,.08.08,0,0,0,0,.11.08.08,0,0,0,.09,0A.07.07,0,0,0,13.56,12.87Z" data-name=" 224309560" id="_224309560" transform="translate(-10 -8)"></path><path class="cls-1" d="M13.49,14.91l0,0a.05.05,0,0,1,0,.08h0a.05.05,0,0,1-.08,0l0,0a.84.84,0,0,1-.27.3l-.05-.11A.31.31,0,0,0,13.3,15c-.23-.36.23-.3.18-.07Zm-.09-.09a.05.05,0,0,0-.08,0,.08.08,0,0,0,0,.09s0,0,.07,0A.05.05,0,0,0,13.4,14.82Z" data-name=" 224309536" id="_224309536" transform="translate(-10 -8)"></path><path class="cls-1" d="M12.41,16.19l.05.06a.08.08,0,0,1,0,.1h0a.08.08,0,0,1-.1,0l0,0a1.12,1.12,0,0,1-.4.29l0-.14a.36.36,0,0,0,.28-.24c-.2-.48.34-.3.23,0Zm-.09-.12a.06.06,0,0,0-.09,0,.09.09,0,0,0,0,.1.09.09,0,0,0,.1,0A.07.07,0,0,0,12.32,16.07Z" data-name=" 224311072" id="_224311072" transform="translate(-10 -8)"></path><path class="cls-1" d="M13.67,18.36c0-.2,0-.32-.2-.37s0-.23.07-.15c.22.2.3,0,.44,0s.15.11,0,.16-.19.2-.18.36-.14.12-.16,0Z" data-name=" 224310040" id="_224310040" transform="translate(-10 -8)"></path><path class="cls-1" d="M13.71,12.19c.06.1.11.2.18.19l0-.06c0-.09-.1-.15-.11-.19s0-.12.07-.06a.72.72,0,0,0,.13.14s.06,0,.07-.05-.16-.2-.15-.25.34.21.28.32a.71.71,0,0,1-.32.29c-.12,0-.25-.18-.29-.26S13.63,12.21,13.71,12.19Z" data-name=" 224309368" id="_224309368" transform="translate(-10 -8)"></path><path class="cls-1" d="M12.41,14.85c0,1.09.59,1.58,2,.65a.59.59,0,0,1,.66.23,1.41,1.41,0,0,0,1.43.21A.36.36,0,0,1,17,16c.5.3.95.18,1.65-.1.07,0,.23-.1.33.18.67.23.55-.66,0-.74-.35.58-1.91.68-1.85.32.23-.12.16-.26-.2-.42-.57,0-.91.21-.48.38-.06.19-.9.15-1.36-.22a1.18,1.18,0,0,0-.77-.19c-.93.63-1.59.69-1.81-.26,0,0,0-.1-.12-.08Zm4.35.55c.1,0,.2,0,.23,0s0,.09-.12.11-.2,0-.23-.05S16.66,15.42,16.76,15.4Zm2.39.22a.31.31,0,0,1,.13.23c0,.07-.08.07-.17,0a.29.29,0,0,1-.13-.22C19,15.57,19.07,15.56,19.15,15.62Z" data-name=" 224311240" id="_224311240" transform="translate(-10 -8)"></path><path class="cls-1" d="M13,13.54c-.2.38-.18.81.31,1a2.19,2.19,0,0,0,1.46-.38c.13-.27.25-.28.37,0a.92.92,0,0,0,1,.24.49.49,0,0,1,.47-.1c-.41.67.74.77.63,0a10,10,0,0,1,1.89-.12c.14,0,.17-.18,0-.23-.82-.18-1.15-.59-1.72-.57-.23,0-.34.11-.33.36.32-.09.95,0,1,.18l-.7.09a.62.62,0,0,1-.53,0c-.64-.09-1.05.31-1.35,0a2.76,2.76,0,0,1-.69-1.24c-.14,0-.36-.08-.14.37s.23.82-.3,1c-.9.31-1.36.15-1.32-.48Zm3.81.85a.26.26,0,0,1,.23,0s0,.09-.12.1a.28.28,0,0,1-.24,0S16.69,14.4,16.79,14.39Z" data-name=" 224310328" id="_224310328" transform="translate(-10 -8)"></path><path class="cls-1" d="M18.44,16.79l.63-.14a.07.07,0,0,1,.08.07h0a.08.08,0,0,1-.06.1l-.64.13a.06.06,0,0,1-.08-.06h0A.08.08,0,0,1,18.44,16.79Z" data-name=" 224309152" id="_224309152" transform="translate(-10 -8)"></path><path class="cls-1" d="M14.83,16.39l.51-.13s.06,0,.07.06h0a.1.1,0,0,1-.06.1l-.51.13s-.06,0-.06-.07h0A.09.09,0,0,1,14.83,16.39Z" data-name=" 224309056" id="_224309056" transform="translate(-10 -8)"></path><ellipse class="cls-2" cx="5.11" cy="10.01" data-name=" 224310256" id="_224310256" rx="0.14" ry="0.14"></ellipse><text x="-10" y="-8"></text><polygon class="cls-1" data-name=" 224309104" id="_224309104" points="1.07 10.08 1.05 9.98 1.03 9.87 1.1 9.95 1.17 10.03 1.19 10.13 1.22 10.23 1.15 10.15 1.07 10.08"></polygon><polygon class="cls-1" data-name=" 224309296" id="_224309296" points="10.85 9.97 10.88 9.87 10.9 9.77 10.83 9.85 10.76 9.92 10.73 10.03 10.71 10.13 10.78 10.05 10.85 9.97"></polygon></g></g><text class="cls-3" transform="translate(12.36 5.12)"> <tspan class="cls-4" x="1.12" y="0">A</tspan><tspan x="4.44" y="0">HM</tspan><tspan class="cls-4" x="12.82" y="0">A</tspan><tspan class="cls-5" x="16.13" y="0">D</tspan><tspan x="19.56" y="0">U </tspan><tspan class="cls-6" x="24.32" y="0">B</tspan><tspan class="cls-7" x="27.43" y="0">E</tspan><tspan class="cls-8" x="30.42" y="0">L</tspan><tspan class="cls-9" x="33.31" y="0">L</tspan><tspan class="cls-10" x="36.17" y="0">O </tspan><tspan class="cls-11" x="40.81" y="0">U</tspan><tspan class="cls-12" x="44.4" y="0">N</tspan><tspan class="cls-10" x="48" y="0">IVER</tspan><tspan class="cls-13" x="59.56" y="0">S</tspan><tspan x="62.16" y="0">IT</tspan><tspan class="cls-14" x="67.15" y="0">Y</tspan></text><text class="cls-15" transform="translate(13.38 9.46)">ZARI<tspan class="cls-16" x="8.31" y="0">A</tspan><tspan x="10.69" xml:space="preserve" y="0"> - NIGERI</tspan><tspan class="cls-16" x="26.63" y="0">A</tspan></text></svg>